<svg xmlns="http://www.w3.org/2000/svg" viewBox="0 0 866.72 213.00" width="867" height="213"><g transform="translate(18.80,181.00) scale(0.20000,-0.20000)"><path d="M66 0V745H351Q428 745 487.5 718.0Q547 691 581.0 638.0Q615 585 615 507Q615 431 580.0 377.5Q545 324 486 297L656 0H482L298 329L398 270H221V0ZM221 405H352Q385 405 409.0 418.0Q433 431 446.5 454.0Q460 477 460 507Q460 538 446.5 561.0Q433 584 409.0 597.0Q385 610 352 610H221Z" fill="#141414"/></g><g transform="translate(152.20,181.00) scale(0.20000,-0.20000)"><path d="M318 -12Q231 -12 167.0 26.5Q103 65 68.0 130.0Q33 195 33 274Q33 356 69.5 420.0Q106 484 168.0 521.0Q230 558 308 558Q373 558 423.0 537.5Q473 517 507.5 480.0Q542 443 560.0 394.5Q578 346 578 289Q578 273 576.5 257.5Q575 242 571 231H162V341H486L415 289Q425 332 414.0 365.5Q403 399 375.5 418.5Q348 438 308 438Q269 438 241.0 419.0Q213 400 199.0 363.0Q185 326 188 273Q184 227 199.0 192.0Q214 157 245.0 137.5Q276 118 320 118Q360 118 388.5 134.0Q417 150 433 178L553 121Q537 81 502.5 51.0Q468 21 421.0 4.5Q374 -12 318 -12Z" fill="#141414"/></g><g transform="translate(274.40,181.00) scale(0.20000,-0.20000)"><path d="M11 0V120L325 466L347 416H24V546H480V426L174 79L152 130H481V0Z" fill="#141414"/></g><g transform="translate(372.80,181.00) scale(0.20000,-0.20000)"><path d="M11 0V120L325 466L347 416H24V546H480V426L174 79L152 130H481V0Z" fill="#141414"/></g><g transform="translate(471.20,181.00) scale(0.20000,-0.20000)"><path d="M55 0V546H205V0ZM55 595V745H205V595Z" fill="#141414"/></g><g transform="translate(523.20,181.00) scale(0.20000,-0.20000)"><path d="M318 -12Q231 -12 167.0 26.5Q103 65 68.0 130.0Q33 195 33 274Q33 356 69.5 420.0Q106 484 168.0 521.0Q230 558 308 558Q373 558 423.0 537.5Q473 517 507.5 480.0Q542 443 560.0 394.5Q578 346 578 289Q578 273 576.5 257.5Q575 242 571 231H162V341H486L415 289Q425 332 414.0 365.5Q403 399 375.5 418.5Q348 438 308 438Q269 438 241.0 419.0Q213 400 199.0 363.0Q185 326 188 273Q184 227 199.0 192.0Q214 157 245.0 137.5Q276 118 320 118Q360 118 388.5 134.0Q417 150 433 178L553 121Q537 81 502.5 51.0Q468 21 421.0 4.5Q374 -12 318 -12Z" fill="#141414"/></g><g transform="translate(645.40,181.00) scale(0.20000,-0.20000)"><path d="M269 -12Q179 -12 112.5 30.5Q46 73 22 145L132 197Q153 153 189.0 128.0Q225 103 269 103Q301 103 318.0 116.0Q335 129 335 152Q335 164 329.0 172.5Q323 181 311.0 188.0Q299 195 281 200L188 226Q121 245 85.0 287.5Q49 330 49 388Q49 439 75.0 477.0Q101 515 148.0 536.5Q195 558 256 558Q336 558 396.5 520.5Q457 483 482 415L371 363Q359 397 327.5 417.5Q296 438 256 438Q227 438 210.5 426.0Q194 414 194 393Q194 382 200.0 373.0Q206 364 219.5 357.0Q233 350 253 344L340 318Q408 298 444.0 257.5Q480 217 480 158Q480 107 453.5 69.0Q427 31 380.0 9.5Q333 -12 269 -12Z" fill="#141414"/></g><g transform="translate(758.40,91.60) scale(0.08000,-0.08000)"><path d="M189 298V641H82V745H415V641H310V298ZM443 298V745H562L730 536H675L835 745H954V298H834V619L885 609L708 397H690L522 609L564 619V298Z" fill="#141414"/></g></svg>